HIERARCHY
ROOT Hips
{
	OFFSET 0.00000 0.00000 0.00000
	CHANNELS 6 Xposition Yposition Zposition Zrotation Yrotation Xrotation 
	JOINT LHipJoint
	{
		OFFSET 0 0 0
		CHANNELS 3 Zrotation Yrotation Xrotation
		JOINT LeftUpLeg
		{
			OFFSET 1.41261 -1.82971 0.84908
			CHANNELS 3 Zrotation Yrotation Xrotation
			JOINT LeftLeg
			{
				OFFSET 2.52554 -6.93888 0.00000
				CHANNELS 3 Zrotation Yrotation Xrotation
				JOINT LeftFoot
				{
					OFFSET 2.56654 -7.05152 0.00000
					CHANNELS 3 Zrotation Yrotation Xrotation
					JOINT LeftToeBase
					{
						OFFSET 0.21698 -0.59616 1.85369
						CHANNELS 3 Zrotation Yrotation Xrotation
						End Site
						{
							OFFSET 0.00000 -0.00000 0.97832
						}
					}
				}
			}
		}
	}
	JOINT RHipJoint
	{
		OFFSET 0 0 0
		CHANNELS 3 Zrotation Yrotation Xrotation
		JOINT RightUpLeg
		{
			OFFSET -1.12808 -1.82971 0.84907
			CHANNELS 3 Zrotation Yrotation Xrotation
			JOINT RightLeg
			{
				OFFSET -2.53425 -6.96280 0.00000
				CHANNELS 3 Zrotation Yrotation Xrotation
				JOINT RightFoot
				{
					OFFSET -2.58413 -7.09983 0.00000
					CHANNELS 3 Zrotation Yrotation Xrotation
					JOINT RightToeBase
					{
						OFFSET -0.26437 -0.72636 1.92241
						CHANNELS 3 Zrotation Yrotation Xrotation
						End Site
						{
							OFFSET -0.00000 -0.00000 1.02667
						}
					}
				}
			}
		}
	}
	JOINT LowerBack
	{
		OFFSET 0 0 0
		CHANNELS 3 Zrotation Yrotation Xrotation
		JOINT Spine
		{
			OFFSET -0.02096 2.02288 -0.14752
			CHANNELS 3 Zrotation Yrotation Xrotation
			JOINT Spine1
			{
				OFFSET 0.03477 2.03136 -0.02358
				CHANNELS 3 Zrotation Yrotation Xrotation
				JOINT Neck
				{
					OFFSET 0 0 0
					CHANNELS 3 Zrotation Yrotation Xrotation
					JOINT Neck1
					{
						OFFSET 0.00174 1.74359 0.19336
						CHANNELS 3 Zrotation Yrotation Xrotation
						JOINT Head
						{
							OFFSET -0.03054 1.76140 -0.17751
							CHANNELS 3 Zrotation Yrotation Xrotation
							End Site
							{
								OFFSET -0.00863 1.77239 -0.08120
							}
						}
					}
				}
				JOINT LeftShoulder
				{
					OFFSET 0 0 0
					CHANNELS 3 Zrotation Yrotation Xrotation
					JOINT LeftArm
					{
						OFFSET 3.68685 1.32687 -0.67367
						CHANNELS 3 Zrotation Yrotation Xrotation
						JOINT LeftForeArm
						{
							OFFSET 4.76468 -0.00000 -0.00000
							CHANNELS 3 Zrotation Yrotation Xrotation
							JOINT LeftHand
							{
								OFFSET 3.52712 -0.00000 -0.00000
								CHANNELS 3 Zrotation Yrotation Xrotation
								JOINT LeftFingerBase
								{
									OFFSET 0 0 0
									CHANNELS 3 Zrotation Yrotation Xrotation
									JOINT LeftHandIndex1
									{
										OFFSET 0.85956 -0.00000 -0.00000
										CHANNELS 3 Zrotation Yrotation Xrotation
										End Site
										{
											OFFSET 0.69300 -0.00000 -0.00000
										}
									}
								}
								JOINT LThumb
								{
									OFFSET 0 0 0
									CHANNELS 3 Zrotation Yrotation Xrotation
									End Site
									{
										OFFSET 0.70358 -0.00000 0.70358
									}
								}
							}
						}
					}
				}
				JOINT RightShoulder
				{
					OFFSET 0 0 0
					CHANNELS 3 Zrotation Yrotation Xrotation
					JOINT RightArm
					{
						OFFSET -3.31304 1.28268 -0.97357
						CHANNELS 3 Zrotation Yrotation Xrotation
						JOINT RightForeArm
						{
							OFFSET -4.90577 -0.00000 -0.00000
							CHANNELS 3 Zrotation Yrotation Xrotation
							JOINT RightHand
							{
								OFFSET -3.42692 -0.00000 0.00000
								CHANNELS 3 Zrotation Yrotation Xrotation
								JOINT RightFingerBase
								{
									OFFSET 0 0 0
									CHANNELS 3 Zrotation Yrotation Xrotation
									JOINT RightHandIndex1
									{
										OFFSET -0.74096 -0.00000 -0.00000
										CHANNELS 3 Zrotation Yrotation Xrotation
										End Site
										{
											OFFSET -0.59738 -0.00000 -0.00000
										}
									}
								}
								JOINT RThumb
								{
									OFFSET 0 0 0
									CHANNELS 3 Zrotation Yrotation Xrotation
									End Site
									{
										OFFSET -0.60650 -0.00000 0.60650
									}
								}
							}
						}
					}
				}
			}
		}
	}
}
MOTION
Frames: 14
Frame Time: .0083333
-0.2345 18.0782 -27.5349 0 0 0 0 0 0 -21 0 0 0 0 0 0 0 0 0 0 0 0 0 0 21 0 0 0 0 0 0 0 0 0 0 0 0 0 0 0 0 0 0 0 0 0 0 -16 0 0 21 0 0 11 0 0 0 -8 0 0 0 0 0 0 0 0 0 0 0 0 0 0 0 0 0 0 0 0 8 0 0 0 0 0 0 0 0 0 0 0 0 0 0 0 0 0
-0.2345 18.0782 -27.5349 -0.4629 0.3133 2.7383 0.0000 0.0000 0.0000 -18.5294 1.8741 0.9508 0.1963 2.8531 7.8699 0.4416 -4.0161 -11.8224 2.3039 -9.4723 -27.2842 0.0000 0.0000 0.0000 18.8443 -1.0849 -3.6620 -0.7865 -5.6617 15.8059 -0.8855 -3.3293 -19.2787 -0.0527 -1.4815 4.0748 -4.1135 -1.0316 6.0302 2.3552 -1.5814 0.5546 4.8862 -0.7333 -2.6309 -8.0153 -8.6052 -5.9678 3.8966 -11.1415 7.8389 1.8233 -5.5683 3.9788 0.0000 -0.0000 0.0000 -96.3688 1.5693 -8.6913 31.5799 -42.2097 -12.4577 -0.0000 0.0000 -171.0160 24.1123 7.7229 3.4420 -7.1250 0.0000 -0.0000 -2.3404 38.4210 0.3795 0.0000 -0.0000 0.0000 85.7528 12.0598 -23.0362 -2.2192 3.8370 -0.0743 0.0000 0.0000 49.6317 -18.4041 -44.4726 13.1215 7.1250 -0.0000 -0.0000 34.3771 -73.5437 -23.9437
-0.2271 18.0773 -27.5245 -0.4388 0.0557 2.6315 0.0000 0.0000 0.0000 -18.5448 2.1889 1.0991 0.1918 2.8205 7.7794 0.4416 -4.1329 -11.8210 2.3982 -9.6505 -27.8522 0.0000 0.0000 0.0000 18.7727 -1.0561 -3.5375 -0.7939 -5.6874 15.8800 -0.8707 -3.2449 -19.0862 -0.0787 -1.8096 4.9798 -4.1590 -1.0100 6.0752 2.3025 -1.5587 0.5444 4.8568 -0.7204 -2.6695 -7.9919 -8.5165 -6.0908 3.9764 -11.0272 8.0034 1.8429 -5.5068 4.0457 -0.0000 0.0000 0.0000 -95.8691 0.9481 -13.5591 29.0127 -40.0320 -10.7689 -0.0000 0.0000 -168.1590 23.7413 7.4341 3.2570 -7.1250 0.0000 -0.0000 -2.6334 38.0803 0.4490 -0.0000 0.0000 0.0000 85.5675 10.9614 -22.8836 -2.7490 4.7486 -0.1140 0.0000 0.0000 48.1876 -18.1177 -44.1942 12.8484 7.1250 -0.0000 -0.0000 34.0467 -73.2297 -23.4799
-0.2236 18.0744 -27.5172 -0.5167 -0.1013 2.5476 0.0000 0.0000 0.0000 -18.4160 2.3934 1.2262 0.1883 2.7947 7.7078 0.4401 -4.2873 -11.8009 2.5035 -9.8443 -28.4739 0.0000 0.0000 0.0000 18.8584 -0.9879 -3.4430 -0.8031 -5.7195 15.9727 -0.8535 -3.2751 -18.9323 -0.1114 -2.1522 5.9263 -4.1423 -1.0527 6.1087 2.2884 -1.6161 0.5480 4.8379 -0.7491 -2.6789 -8.0369 -8.3562 -6.1054 4.1880 -10.8269 7.9924 1.9273 -5.3995 4.0471 -0.0000 0.0000 0.0000 -95.2731 0.3914 -18.3551 26.8309 -38.0174 -9.3948 -0.0000 0.0000 -165.0780 23.5111 7.1308 3.0912 -7.1250 0.0000 -0.0000 -2.8033 37.7352 0.5018 -0.0000 0.0000 0.0000 85.4246 9.8890 -22.6291 -3.2856 5.6692 -0.1627 0.0000 0.0000 46.3098 -16.8374 -42.8002 11.6192 7.1250 -0.0000 -0.0000 32.4860 -71.7023 -21.3041
-0.2213 18.0702 -27.5108 -0.5970 -0.2255 2.4865 0.0000 0.0000 0.0000 -18.3010 2.4804 1.3592 0.1850 2.7706 7.6407 0.4431 -4.3083 -11.8408 2.5425 -9.9148 -28.7011 0.0000 0.0000 0.0000 18.9569 -0.8781 -3.4177 -0.8206 -5.7799 16.1473 -0.8366 -3.3689 -18.8141 -0.1565 -2.5490 7.0255 -4.1219 -1.1349 6.1602 2.2788 -1.7265 0.5484 4.8263 -0.8040 -2.6957 -7.9900 -8.1713 -6.2676 4.2200 -10.5765 8.1076 1.9391 -5.2714 4.0929 -0.0000 0.0000 0.0000 -94.5863 0.0848 -22.7589 25.0977 -36.3037 -8.3477 -0.0000 0.0000 -161.9390 23.2329 6.8614 2.9359 -7.1250 0.0000 -0.0000 -3.0164 37.4250 0.5630 -0.0000 0.0000 0.0000 85.3179 8.8099 -22.2783 -3.8863 6.6955 -0.2274 0.0000 0.0000 44.1979 -14.8804 -40.6974 9.8296 7.1250 -0.0000 -0.0000 30.8399 -69.3665 -18.6112
-0.2168 18.0653 -27.5041 -0.4779 -0.3327 2.4674 0.0000 0.0000 0.0000 -18.4558 2.5957 1.4092 0.1833 2.7574 7.6041 0.4506 -4.2030 -11.9417 2.6059 -10.0279 -29.0672 0.0000 0.0000 0.0000 18.7963 -0.8128 -3.4842 -0.8437 -5.8590 16.3758 -0.8270 -3.3915 -18.7300 -0.2176 -3.0028 8.2866 -4.2794 -1.2403 6.1353 2.2085 -1.8789 0.5666 4.8525 -0.8806 -2.6429 -7.8580 -8.0120 -6.5831 4.1507 -10.3499 8.3178 1.8981 -5.1554 4.1846 0.0000 -0.0000 0.0000 -93.8703 0.0214 -26.4934 23.7390 -34.8870 -7.5567 -0.0000 0.0000 -158.5230 22.9445 6.8553 2.8927 -7.1250 0.0000 -0.0000 -3.2609 37.4000 0.6107 0.0000 -0.0000 0.0000 85.2386 7.7314 -21.8771 -4.5609 7.8421 -0.3128 0.0000 0.0000 42.1423 -12.7500 -38.3326 7.9889 7.1250 -0.0000 -0.0000 29.6176 -66.7531 -16.1079
-0.2139 18.0607 -27.4995 -0.3639 -0.4642 2.4827 0.0000 0.0000 0.0000 -18.5710 2.8518 1.3244 0.1846 2.7673 7.6315 0.4582 -4.2883 -12.0415 2.6375 -10.0837 -29.2481 0.0000 0.0000 0.0000 18.6603 -0.7274 -3.5814 -0.8642 -5.9279 16.5753 -0.7815 -3.5874 -18.3752 -0.3353 -3.7213 10.2939 -4.4493 -1.3165 6.0519 2.1469 -1.9904 0.5998 4.8892 -0.9382 -2.5453 -7.8550 -7.8630 -6.9152 4.2563 -10.1414 8.5457 1.9273 -5.0435 4.3019 0.0000 -0.0000 0.0000 -93.2318 0.0036 -29.6844 22.6619 -33.7170 -6.9497 -0.0000 0.0000 -154.8840 22.8544 6.8656 2.8844 -7.1250 0.0000 -0.0000 -3.3384 37.4055 0.6248 0.0000 -0.0000 0.0000 85.1992 6.6317 -21.5255 -5.2936 9.0790 -0.4206 0.0000 0.0000 40.2257 -10.7847 -36.0155 6.3908 7.1250 -0.0000 -0.0000 28.8051 -64.2339 -13.9759
-0.2125 18.0562 -27.4960 -0.4723 -0.6783 2.4907 0.0000 0.0000 0.0000 -18.3995 3.1274 1.2542 0.1855 2.7738 7.6496 0.4621 -4.4231 -12.0929 2.6754 -10.1501 -29.4643 0.0000 0.0000 0.0000 18.8143 -0.5353 -3.6560 -0.8846 -5.9956 16.7716 -0.7896 -3.5606 -18.4430 -0.3368 -3.7297 10.3173 -4.3986 -1.3476 6.0023 2.1445 -2.0262 0.6378 4.8579 -0.9595 -2.4759 -7.7780 -7.7458 -7.2328 4.2372 -9.9714 8.7483 1.9067 -4.9544 4.4011 0.0000 -0.0000 0.0000 -92.6802 0.0474 -32.3519 21.9156 -32.8815 -6.5400 -0.0000 0.0000 -151.6560 23.2592 6.5492 2.8067 -7.1250 0.0000 -0.0000 -2.9673 37.0882 0.5782 0.0000 -0.0000 0.0000 85.2624 5.9487 -14.6279 -5.9082 10.1090 -0.5230 0.0000 0.0000 32.1728 -9.8806 -35.5398 5.7812 7.1250 -0.0000 -0.0000 29.2158 -63.5852 -13.7515
-0.2082 18.0518 -27.4925 -0.4469 -0.9429 2.5095 0.0000 0.0000 0.0000 -18.4356 3.2904 1.2489 0.1829 2.7544 7.5957 0.4635 -4.3706 -12.1118 2.6818 -10.1612 -29.5005 0.0000 0.0000 0.0000 18.7779 -0.3500 -3.7678 -0.9078 -6.0715 16.9921 -0.8060 -3.3692 -18.5031 -0.3426 -3.7611 10.4056 -4.4618 -1.3894 5.9552 2.1162 -2.0848 0.6785 4.8656 -0.9914 -2.3993 -7.7206 -7.6115 -7.5012 4.1994 -9.7763 8.8875 1.8888 -4.8551 4.4717 0.0000 -0.0000 0.0000 -92.2808 0.3362 -34.2700 21.5187 -32.4288 -6.3258 -0.0000 0.0000 -149.2140 24.0590 6.0932 2.7132 -7.1250 0.0000 -0.0000 -2.2556 36.6396 0.4641 0.0000 -0.0000 0.0000 85.3816 5.7475 -10.1078 -6.4583 11.0244 -0.6239 0.0000 0.0000 26.7648 -9.0806 -35.2737 5.2733 7.1250 -0.0000 -0.0000 29.7554 -63.1482 -13.7246
-0.2032 18.0492 -27.4901 -0.3915 -1.2062 2.5079 0.0000 0.0000 0.0000 -18.5210 3.3988 1.2813 0.1803 2.7348 7.5413 0.4645 -4.2257 -12.1251 2.6708 -10.1421 -29.4381 0.0000 0.0000 0.0000 18.7035 -0.2090 -3.8542 -0.9287 -6.1393 17.1891 -0.8348 -2.9611 -18.5752 -0.3315 -3.7004 10.2353 -4.5255 -1.4332 5.9775 2.0858 -2.1489 0.7000 4.8748 -1.0240 -2.3810 -7.8264 -7.4617 -7.6683 4.2701 -9.5598 8.9925 1.9354 -4.7464 4.5273 0.0000 0.0000 0.0000 -92.0309 0.9092 -35.3092 21.3667 -32.2539 -6.2445 -0.0000 0.0000 -147.6070 24.8581 5.6037 2.5903 -7.1250 0.0000 -0.0000 -1.5509 36.1478 0.3376 0.0000 0.0000 0.0000 85.4389 5.4720 -5.9664 -7.0971 12.0790 -0.7518 0.0000 0.0000 21.6125 -8.5291 -35.2189 4.9431 7.1250 -0.0000 -0.0000 30.2681 -62.9580 -13.8488
-0.2004 18.0474 -27.4882 -0.5137 -1.4255 2.4806 0.0000 0.0000 0.0000 -18.3714 3.4896 1.3102 0.1812 2.7415 7.5599 0.4661 -4.1313 -12.1480 2.6833 -10.1639 -29.5090 0.0000 0.0000 0.0000 18.8645 -0.0580 -3.8723 -0.9451 -6.1914 17.3409 -0.8296 -3.1442 -18.6202 -0.3210 -3.6420 10.0717 -4.4194 -1.4608 6.0645 2.1143 -2.1813 0.7158 4.8496 -1.0405 -2.4122 -7.8579 -7.3408 -7.7626 4.1899 -9.3761 8.9750 1.9272 -4.6601 4.5241 -0.0000 0.0000 0.0000 -91.9147 1.5674 -35.6771 21.3526 -32.2376 -6.2369 -0.0000 0.0000 -146.7330 25.3941 5.2599 2.4918 -7.1250 0.0000 -0.0000 -1.0823 35.7968 0.2448 -0.0000 0.0000 0.0000 85.5431 5.0256 -2.2951 -7.6966 13.0598 -0.8823 0.0000 0.0000 18.0552 -8.9007 -35.1300 5.1495 7.1250 -0.0000 -0.0000 29.7839 -62.9792 -13.6210
-0.1967 18.0451 -27.4874 -0.5823 -1.5953 2.4771 0.0000 0.0000 0.0000 -18.3022 3.5396 1.2769 0.1854 2.7735 7.6488 0.4714 -4.0731 -12.2189 2.6664 -10.1344 -29.4131 0.0000 0.0000 0.0000 18.9407 0.0602 -3.8945 -0.9544 -6.2211 17.4272 -0.8397 -2.9390 -18.6132 -0.3224 -3.6495 10.0927 -4.3393 -1.4830 6.1056 2.1058 -2.2070 0.7562 4.7978 -1.0555 -2.3938 -7.7614 -7.2206 -7.9407 4.0521 -9.1957 8.9528 1.8788 -4.5731 4.5247 0.0000 -0.0000 0.0000 -91.8577 2.1347 -35.6807 21.4084 -32.3020 -6.2668 -0.0000 0.0000 -146.4710 25.8136 5.1776 2.4995 -7.1250 0.0000 -0.0000 -0.7272 35.7269 0.1657 0.0000 -0.0000 0.0000 85.7862 4.7388 0.1250 -8.2826 14.0100 -1.0195 0.0000 0.0000 15.4920 -9.2763 -35.1907 5.3773 7.1250 -0.0000 -0.0000 29.4595 -63.1286 -13.5621
-0.1912 18.0439 -27.4889 -0.5920 -1.8155 2.4997 0.0000 0.0000 0.0000 -18.3179 3.6117 1.1962 0.1902 2.8089 7.7472 0.4794 -3.9705 -12.3265 2.6178 -10.0491 -29.1358 0.0000 0.0000 0.0000 18.9321 0.2089 -3.9418 -0.9628 -6.2478 17.5050 -0.8478 -2.6386 -18.5391 -0.3434 -3.7654 10.4175 -4.3018 -1.4884 6.1130 2.0574 -2.2129 0.7954 4.7256 -1.0606 -2.3600 -7.5950 -7.0994 -8.1530 3.9214 -9.0232 9.0081 1.8187 -4.4873 4.5528 0.0000 -0.0000 0.0000 -91.8300 2.7231 -35.2825 21.5235 -32.4343 -6.3284 -0.0000 0.0000 -147.0190 26.1547 5.1653 2.5315 -7.1250 0.0000 -0.0000 -0.4413 35.7302 0.1005 0.0000 -0.0000 0.0000 86.1176 4.5005 2.0389 -8.8364 14.8992 -1.1577 0.0000 0.0000 13.4941 -9.8617 -35.4018 5.7507 7.1250 -0.0000 -0.0000 29.0807 -63.4625 -13.5992
-0.1860 18.0426 -27.4900 -0.6430 -2.1057 2.5060 0.0000 0.0000 0.0000 -18.2839 3.6963 1.1669 0.1927 2.8270 7.7975 0.4843 -3.7683 -12.3994 2.6033 -10.0234 -29.0527 0.0000 0.0000 0.0000 18.9811 0.4171 -3.9579 -0.9737 -6.2818 17.6044 -0.8604 -2.6125 -18.6521 -0.3208 -3.6409 10.0685 -4.2576 -1.4706 6.1354 2.0400 -2.1873 0.8246 4.6807 -1.0492 -2.3476 -7.4986 -7.0003 -8.1904 3.8468 -8.8895 8.9712 1.7911 -4.4219 4.5321 -0.0000 -0.0000 0.0000 -91.9348 3.3232 -34.6220 21.7205 -32.6598 -6.4344 -0.0000 0.0000 -148.0210 26.3458 5.2463 2.5927 -7.1250 0.0000 -0.0000 -0.2847 35.8300 0.0642 -0.0000 -0.0000 0.0000 86.4184 4.3418 3.4944 -9.2457 15.5511 -1.2652 0.0000 0.0000 12.1967 -10.4763 -35.3430 6.1055 7.1250 -0.0000 -0.0000 28.3676 -63.5747 -13.3120
